HIERARCHY
ROOT reference
{
  OFFSET 0 0 0
  CHANNELS 6 Xposition Yposition Zposition Zrotation Xrotation Yrotation
  JOINT Hips
  {
    OFFSET -18.8474 97.52 70.7712
    CHANNELS 6 Xposition Yposition Zposition Zrotation Xrotation Yrotation
    JOINT Spine
    {
      OFFSET 0 7.86299 0
      CHANNELS 6 Xposition Yposition Zposition Zrotation Xrotation Yrotation
      JOINT Spine1
      {
        OFFSET 0 22.6654 0
        CHANNELS 6 Xposition Yposition Zposition Zrotation Xrotation Yrotation
        JOINT Neck
        {
          OFFSET 0 22.5723 2.05203
          CHANNELS 6 Xposition Yposition Zposition Zrotation Xrotation Yrotation
          JOINT Head
          {
            OFFSET 0 13.4246 -1.9178
            CHANNELS 6 Xposition Yposition Zposition Zrotation Xrotation Yrotation
            End Site
            {
              OFFSET 0 23.9725 0
            }
          }
        }
        JOINT LeftShoulder
        {
          OFFSET 3.7941 20.1358 -0.319195
          CHANNELS 6 Xposition Yposition Zposition Zrotation Xrotation Yrotation
          JOINT LeftArm
          {
            OFFSET 12.7665 0 0
            CHANNELS 6 Xposition Yposition Zposition Zrotation Xrotation Yrotation
            JOINT LeftForeArm
            {
              OFFSET 28.396 0 0
              CHANNELS 6 Xposition Yposition Zposition Zrotation Xrotation Yrotation
              JOINT LeftHand
              {
                OFFSET 28.7929 0 0
                CHANNELS 6 Xposition Yposition Zposition Zrotation Xrotation Yrotation
                End Site
                {
                  OFFSET 14.3835 0 0
                }
              }
            }
          }
        }
        JOINT RightShoulder
        {
          OFFSET -3.85764 20.1358 -0.319195
          CHANNELS 6 Xposition Yposition Zposition Zrotation Xrotation Yrotation
          JOINT RightArm
          {
            OFFSET -12.7665 0 0
            CHANNELS 6 Xposition Yposition Zposition Zrotation Xrotation Yrotation
            JOINT RightForeArm
            {
              OFFSET -28.396 0 0
              CHANNELS 6 Xposition Yposition Zposition Zrotation Xrotation Yrotation
              JOINT RightHand
              {
                OFFSET -28.7929 0 0
                CHANNELS 6 Xposition Yposition Zposition Zrotation Xrotation Yrotation
                End Site
                {
                  OFFSET -14.3835 0 0
                }
              }
            }
          }
        }
      }
    }
    JOINT LeftUpLeg
    {
      OFFSET 9.58901 0 0
      CHANNELS 6 Xposition Yposition Zposition Zrotation Xrotation Yrotation
      JOINT LeftLeg
      {
        OFFSET 0 -41.7092 0
        CHANNELS 6 Xposition Yposition Zposition Zrotation Xrotation Yrotation
        JOINT LeftFoot
        {
          OFFSET 0 -41.5308 0
          CHANNELS 6 Xposition Yposition Zposition Zrotation Xrotation Yrotation
          JOINT LeftToeBase
          {
            OFFSET 0 -6.23286 14.3835
            CHANNELS 6 Xposition Yposition Zposition Zrotation Xrotation Yrotation
            End Site
            {
              OFFSET 0 0 3.8356
            }
          }
        }
      }
    }
    JOINT RightUpLeg
    {
      OFFSET -9.58901 0 0
      CHANNELS 6 Xposition Yposition Zposition Zrotation Xrotation Yrotation
      JOINT RightLeg
      {
        OFFSET 0 -41.7092 0
        CHANNELS 6 Xposition Yposition Zposition Zrotation Xrotation Yrotation
        JOINT RightFoot
        {
          OFFSET 0 -41.5308 0
          CHANNELS 6 Xposition Yposition Zposition Zrotation Xrotation Yrotation
          JOINT RightToeBase
          {
            OFFSET 0 -6.23286 14.3835
            CHANNELS 6 Xposition Yposition Zposition Zrotation Xrotation Yrotation
            End Site
            {
              OFFSET 0 0 3.8356
            }
          }
        }
      }
    }
  }
}
MOTION
Frames:	9
Frame Time:	0.004
0 0 0 0 0 -0 -25.6294 94.1511 -147.385 -2.50609 -2.05582 -0.937586 7.10543e-015 7.86299 2.84217e-014 -1.82034 3.23586 -2.68302 0 22.6654 0 1.97418 2.99992 -2.78618 7.10543e-015 22.5723 2.05203 -1.09567 29.8795 1.71831 0 13.4246 -1.9178 4.40321 -11.4398 2.69624 3.7941 20.1358 -0.319195 -16.2999 32.2237 9.43372 12.7665 0 -2.84217e-014 -26.3068 24.2187 -37.5501 28.396 0 0 6.18106 -13.4216 -34.2693 28.7929 7.10543e-015 2.13163e-014 8.46127 -10.5763 13.4775 -3.85764 20.1358 -0.319195 10.9329 44.7821 5.02342 -12.7665 -1.42109e-014 0 21.5401 29.2517 33.2325 -28.396 1.42109e-014 5.68434e-014 -0.66323 -13.739 24.6081 -28.7929 0 0 3.10307 -13.7081 -4.15036 9.58901 0 0 3.36726 5.78073 1.76273 -1.77636e-015 -41.7092 -2.84217e-014 -5.17021 9.046 -1.7184 0 -41.5308 2.84217e-014 -2.34066 22.7575 13.0272 -3.55271e-015 -6.23286 14.3835 3.97569e-015 -3.18055e-015 -0 -9.58901 1.42109e-014 0 -2.06216 -20.3972 -1.11978 -1.42109e-014 -41.7092 0 5.72368 19.2594 -4.70659 0 -41.5308 -1.42109e-014 13.7593 32.3226 -10.1341 -7.10543e-015 -6.23286 14.3835 7.95139e-016 6.36111e-015 -0 
0 0 0 0 0 -0 -25.6356 94.1171 -147.187 -2.47626 -2.03625 -0.808552 3.55271e-015 7.86299 0 -1.81624 3.31805 -2.70124 0 22.6654 -2.84217e-014 1.9818 3.00119 -2.80582 0 22.5723 2.05203 -1.09763 29.8046 1.69208 0 13.4246 -1.9178 4.36279 -11.4747 2.66117 3.7941 20.1358 -0.319195 -16.2718 32.2148 9.39335 12.7665 1.42109e-014 0 -26.2746 24.2492 -37.6401 28.396 -1.42109e-014 -1.42109e-014 6.25473 -13.4827 -34.4649 28.7929 -1.42109e-014 0 8.6808 -10.574 13.5383 -3.85764 20.1358 -0.319195 10.989 44.7308 5.00124 -12.7665 1.42109e-014 -2.84217e-014 21.5425 29.3828 33.172 -28.396 1.42109e-014 0 -0.860076 -13.7814 24.6961 -28.7929 0 2.84217e-014 3.33053 -13.7146 -4.0966 9.58901 0 -2.84217e-014 3.3472 5.79309 1.83093 0 -41.7092 0 -5.16957 9.21875 -1.81927 0 -41.5308 0 -2.24 22.5956 13.0105 3.55271e-015 -6.23286 14.3835 -7.95139e-016 -3.18055e-015 -0 -9.58901 0 -2.84217e-014 -2.04489 -20.5012 -1.18042 0 -41.7092 -1.42109e-014 5.48855 18.8751 -4.53961 0 -41.5308 1.42109e-014 14.2814 32.6894 -10.1957 0 -6.23286 14.3835 1.59028e-015 -6.36111e-015 3.18055e-015 
0 0 0 0 0 -0 -25.6237 94.0864 -146.971 -2.42058 -2.06685 -0.701265 -3.55271e-015 7.86299 0 -1.80751 3.41666 -2.71336 0 22.6654 0 1.97658 3.01672 -2.81938 0 22.5723 2.05203 -1.15291 29.8619 1.67852 0 13.4246 -1.9178 4.34237 -11.6765 2.64142 3.7941 20.1358 -0.319195 -16.2867 32.2606 9.37591 12.7665 1.42109e-014 0 -26.2747 24.2179 -37.7192 28.396 1.42109e-014 1.42109e-014 6.34237 -13.4897 -34.6188 28.7929 -1.42109e-014 7.10543e-015 8.78021 -10.535 13.5172 -3.85764 20.1358 -0.319195 10.9895 44.765 4.97777 -12.7665 -1.42109e-014 0 21.5273 29.3424 33.2285 -28.396 0 0 -0.902207 -13.7897 24.6993 -28.7929 7.10543e-015 0 3.3707 -13.713 -4.013 9.58901 0 0 3.26798 5.88254 1.94837 -1.77636e-015 -41.7092 0 -5.12926 9.36446 -1.93712 0 -41.5308 -2.84217e-014 -2.1136 22.4893 12.9725 0 -6.23286 14.3835 -8.82781e-032 -3.18055e-015 -1.59028e-015 -9.58901 1.42109e-014 0 -2.04062 -20.4989 -1.38478 7.10543e-015 -41.7092 1.42109e-014 5.29028 18.4532 -4.54973 0 -41.5308 1.42109e-014 14.9169 32.7791 -10.424 7.10543e-015 -6.23286 14.3835 -2.38542e-015 -6.36111e-015 -0 
0 0 0 0 0 -0 -25.6319 94.0558 -146.785 -2.41716 -2.06776 -0.628945 0 7.86299 0 -1.79114 3.54801 -2.71671 0 22.6654 0 2.01478 2.98366 -2.82471 0 22.5723 2.05203 -1.19491 29.8179 1.67825 0 13.4246 -1.9178 4.34139 -11.7167 2.63728 3.7941 20.1358 -0.319195 -16.319 32.2537 9.37497 12.7665 1.42109e-014 0 -26.2812 24.2017 -37.7628 28.396 -1.42109e-014 -1.42109e-014 6.39819 -13.5538 -34.7881 28.7929 -7.10543e-015 -7.10543e-015 8.82181 -10.5746 13.4242 -3.85764 20.1358 -0.319195 10.9759 44.772 5.00792 -12.7665 -1.42109e-014 -2.84217e-014 21.5487 29.2973 33.2223 -28.396 0 2.84217e-014 -0.92094 -13.8133 24.7363 -28.7929 -7.10543e-015 2.84217e-014 3.35141 -13.7303 -3.97117 9.58901 0 0 3.27229 5.90782 2.11257 0 -41.7092 2.84217e-014 -5.1244 9.56467 -2.0685 -3.55271e-015 -41.5308 0 -1.97671 22.3274 12.9366 -3.55271e-015 -6.23286 14.3835 -7.94503e-031 9.54166e-015 4.77083e-015 -9.58901 0 2.84217e-014 -1.99161 -20.6007 -1.33841 0 -41.7092 1.42109e-014 5.23498 18.1409 -4.74547 0 -41.5308 1.42109e-014 14.9051 33.2413 -10.3734 0 -6.23286 14.3835 4.77083e-015 -6.36111e-015 1.59028e-015 
0 0 0 0 0 -0 -25.6429 94.0195 -146.577 -2.38235 -2.06358 -0.464274 3.55271e-015 7.86299 -2.84217e-014 -1.78763 3.6331 -2.75257 7.10543e-015 22.6654 2.84217e-014 2.02919 2.99626 -2.86239 0 22.5723 2.05203 -1.19445 29.7927 1.64541 0 13.4246 -1.9178 4.30091 -11.824 2.59755 3.7941 20.1358 -0.319195 -16.3958 32.2836 9.42875 12.7665 1.42109e-014 -2.84217e-014 -26.0875 24.2236 -37.931 28.396 0 0 6.35984 -13.6692 -34.9723 28.7929 7.10543e-015 -7.10543e-015 9.14518 -10.6475 13.5121 -3.85764 20.1358 -0.319195 11.0021 44.7858 5.01442 -12.7665 0 -2.84217e-014 21.5555 29.2925 33.2088 -28.396 -1.42109e-014 0 -1.02283 -13.8167 24.7855 -28.7929 0 0 3.40479 -13.713 -3.95619 9.58901 0 0 3.26566 5.92603 2.1442 0 -41.7092 2.84217e-014 -5.13405 9.76353 -2.22793 3.55271e-015 -41.5308 0 -1.92489 22.1649 12.9808 0 -6.23286 14.3835 2.38542e-015 0 -1.59028e-015 -9.58901 1.42109e-014 0 -1.99788 -20.6819 -1.39874 -7.10543e-015 -41.7092 2.84217e-014 5.15106 17.8721 -4.64854 0 -41.5308 0 15.3082 33.4598 -10.6967 7.10543e-015 -6.23286 14.3835 -1.59028e-015 3.18055e-015 -1.59028e-015 
0 0 0 0 0 -0 -25.6321 93.9882 -146.35 -2.32515 -2.10313 -0.334867 7.10543e-015 7.86299 0 -1.78732 3.74128 -2.77988 7.10543e-015 22.6654 2.84217e-014 2.03517 3.02164 -2.892 0 22.5723 2.05203 -1.18932 29.8121 1.62501 7.10543e-015 13.4246 -1.9178 4.22186 -11.9756 2.56295 3.7941 20.1358 -0.319195 -16.3432 32.3214 9.36228 12.7665 1.42109e-014 2.84217e-014 -26.211 24.1671 -37.9673 28.396 0 1.42109e-014 6.43255 -13.6634 -35.1102 28.7929 7.10543e-015 0 9.2476 -10.5991 13.5077 -3.85764 20.1358 -0.319195 10.9977 44.7381 5.04084 -12.7665 0 0 21.6098 29.2751 33.1536 -28.396 1.42109e-014 0 -0.987195 -13.9186 24.8593 -28.7929 -1.42109e-014 -2.84217e-014 3.19562 -13.8187 -4.09857 9.58901 0 0 3.19968 6.02973 2.14941 0 -41.7092 0 -5.12398 9.903 -2.26558 0 -41.5308 0 -1.75493 22.0486 12.9264 0 -6.23286 14.3835 -2.38542e-015 -6.36111e-015 -1.59028e-015 -9.58901 -1.42109e-014 0 -2.13993 -20.746 -1.18243 7.10543e-015 -41.7092 0 5.38263 17.659 -4.89317 0 -41.5308 -1.42109e-014 15.9057 33.5222 -11.3721 -1.42109e-014 -6.23286 14.3835 -1.59028e-015 -3.18055e-015 4.77083e-015 
0 0 0 0 0 -0 -25.6276 93.9491 -146.141 -2.28823 -2.10216 -0.204344 0 7.86299 0 -1.76404 3.82862 -2.80328 0 22.6654 0 2.04917 3.04245 -2.91672 7.10543e-015 22.5723 2.05203 -1.22454 29.7434 1.61313 0 13.4246 -1.9178 4.21464 -12.0078 2.5461 3.7941 20.1358 -0.319195 -16.3599 32.304 9.32369 12.7665 -2.84217e-014 0 -26.1969 24.1918 -37.9995 28.396 2.84217e-014 0 6.50494 -13.7334 -35.2473 28.7929 -7.10543e-015 -7.10543e-015 9.11616 -10.6678 13.3359 -3.85764 20.1358 -0.319195 11.0076 44.8093 5.04564 -12.7665 1.42109e-014 0 21.555 29.2416 33.1785 -28.396 2.84217e-014 0 -1.1115 -13.9271 24.892 -28.7929 7.10543e-015 2.84217e-014 3.31956 -13.799 -3.90116 9.58901 -2.84217e-014 2.84217e-014 3.16352 6.06388 2.20526 -3.55271e-015 -41.7092 0 -5.11038 10.0847 -2.33706 3.55271e-015 -41.5308 2.84217e-014 -1.5679 21.8955 12.8272 0 -6.23286 14.3835 1.59028e-015 3.18055e-015 -1.59028e-015 -9.58901 -1.42109e-014 0 -2.16912 -20.8218 -1.21275 -7.10543e-015 -41.7092 0 5.34891 17.4389 -4.6861 0 -41.5308 -1.42109e-014 16.0778 33.7517 -11.5504 0 -6.23286 14.3835 7.95139e-016 0 1.59028e-015 
0 0 0 0 0 -0 -25.6284 93.9085 -145.926 -2.26018 -2.09223 -0.07635 0 7.86299 0 -1.7268 3.90524 -2.81691 0 22.6654 0 2.05517 3.05186 -2.93059 0 22.5723 2.05203 -1.05759 29.7838 1.56096 0 13.4246 -1.9178 3.87822 -12.2003 2.43752 3.7941 20.1358 -0.319195 -16.3433 32.2958 9.25445 12.7665 -2.84217e-014 0 -26.2058 24.2232 -38.0106 28.396 -1.42109e-014 0 6.65194 -13.7034 -35.383 28.7929 -7.10543e-015 7.10543e-015 9.10651 -10.5812 13.3723 -3.85764 20.1358 -0.319195 11.0365 44.7661 5.01005 -12.7665 -1.42109e-014 0 21.5728 29.2669 33.1867 -28.396 -1.42109e-014 0 -1.26657 -13.8608 24.8545 -28.7929 7.10543e-015 0 3.59135 -13.7035 -3.72663 9.58901 0 0 3.13847 6.09812 2.32338 0 -41.7092 0 -5.0803 10.2508 -2.4268 3.55271e-015 -41.5308 0 -1.39059 21.7725 12.6988 -3.55271e-015 -6.23286 14.3835 -7.95139e-016 6.36111e-015 3.18055e-015 -9.58901 -2.84217e-014 0 -2.17313 -20.9072 -1.25029 0 -41.7092 -1.42109e-014 5.29405 17.2249 -4.85194 0 -41.5308 0 16.3381 34.0216 -11.6613 0 -6.23286 14.3835 2.38542e-015 -3.18055e-015 -0 
0 0 0 0 0 -0 -25.6284 93.8646 -145.707 -2.22839 -2.10286 0.076344 -3.55271e-015 7.86299 0 -1.68136 3.99909 -2.8535 0 22.6654 2.84217e-014 2.05397 3.06961 -2.96731 0 22.5723 2.05203 -1.03372 29.7502 1.53358 -7.10543e-015 13.4246 -1.9178 3.80791 -12.2555 2.39705 3.7941 20.1358 -0.319195 -16.3606 32.351 9.26705 12.7665 -1.42109e-014 0 -26.1587 24.2164 -38.1407 28.396 -1.42109e-014 0 6.7204 -13.7278 -35.5011 28.7929 1.42109e-014 -7.10543e-015 9.15611 -10.5726 13.352 -3.85764 20.1358 -0.319195 11.0215 44.8062 5.07455 -12.7665 0 0 21.5981 29.2151 33.1262 -28.396 -1.42109e-014 2.84217e-014 -1.26226 -13.9509 24.9668 -28.7929 0 0 3.22274 -13.7856 -3.87032 9.58901 1.42109e-014 0 3.10286 6.15084 2.35904 0 -41.7092 0 -5.05649 10.411 -2.4529 -3.55271e-015 -41.5308 0 -1.17915 21.6426 12.5436 0 -6.23286 14.3835 -7.95139e-016 3.18055e-015 3.18055e-015 -9.58901 -1.42109e-014 0 -2.1327 -20.9261 -1.59475 -7.10543e-015 -41.7092 0 5.0162 16.9788 -4.64838 -7.10543e-015 -41.5308 0 16.8236 34.2514 -11.9091 7.10543e-015 -6.23286 14.3835 3.18055e-015 -3.18055e-015 -0 
